<svg
  width="100"
  height="100"
  viewBox="0 0 100 100"
  fill="none"
  xmlns="http://www.w3.org/2000/svg"
>
  <ellipse cx="50" cy="55" rx="38" ry="40" fill="#232846" />
  <ellipse cx="50" cy="65" rx="22" ry="25" fill="#FAFAFA" fill-opacity="0.2" />
  <path d="M20 25 Q25 10 35 20 Q30 25 25 30 Z" fill="#232846" />
  <path d="M80 25 Q75 10 65 20 Q70 25 75 30 Z" fill="#232846" /> 
  <ellipse cx="18" cy="60" rx="8" ry="20" fill="#232846" />
  <ellipse cx="82" cy="60" rx="8" ry="20" fill="#232846" />
  <circle cx="35" cy="45" r="16" fill="#FAFAFA" />
  <circle cx="65" cy="45" r="16" fill="#FAFAFA" />
  <circle cx="35" cy="45" r="8" fill="#262626" />
  <circle cx="65" cy="45" r="8" fill="#262626" />
  <circle cx="38" cy="42" r="3" fill="#FAFAFA" />
  <circle cx="68" cy="42" r="3" fill="#FAFAFA" />
  <path d="M45 55 L50 65 L55 55 Z" fill="#FF9800" />
 
  <ellipse cx="38" cy="92" rx="8" ry="4" fill="#FF9800" />
  <ellipse cx="62" cy="92" rx="8" ry="4" fill="#FF9800" />
</svg>